<?xml version="1.0" standalone="no"?>
<!DOCTYPE svg PUBLIC "-//W3C//DTD SVG 20010904//EN"
 "http://www.w3.org/TR/2001/REC-SVG-20010904/DTD/svg10.dtd">
<svg version="1.0" xmlns="http://www.w3.org/2000/svg"
 width="415.000000pt" height="353.000000pt" viewBox="0 0 415.000000 353.000000"
 preserveAspectRatio="xMidYMid meet">

<g transform="translate(0.000000,353.000000) scale(0.100000,-0.100000)"
fill="#000000" stroke="none">
<path d="M2180 3074 c-18 -46 -12 -52 95 -93 152 -59 150 -59 164 -20 6 17 11
35 11 39 0 7 -140 63 -218 86 -42 13 -43 13 -52 -12z"/>
<path d="M727 2934 c-15 -8 -26 -18 -24 -22 2 -4 12 -25 22 -47 60 -133 168
-345 175 -345 5 0 21 5 35 12 20 9 25 17 21 34 -12 46 -176 379 -188 381 -7 1
-26 -4 -41 -13z"/>
<path d="M2270 2486 c-80 -34 -228 -98 -330 -140 -102 -43 -189 -82 -193 -86
-5 -4 -1 -23 8 -41 23 -44 22 -44 37 -32 7 6 49 25 93 43 96 39 321 134 390
165 28 12 82 35 122 50 l72 28 -15 35 c-7 19 -14 36 -14 38 0 11 -38 -2 -170
-60z"/>
<path d="M2618 1782 c-82 -224 -148 -412 -148 -419 0 -14 61 -36 71 -26 9 11
59 143 129 343 32 91 84 233 114 317 31 84 56 157 56 162 0 8 -52 31 -69 31
-3 0 -72 -184 -153 -408z"/>
<path d="M1600 1525 c-21 -22 -22 -27 -9 -42 15 -19 156 -179 174 -199 6 -6
27 -30 49 -54 l38 -42 31 30 30 31 -69 78 c-93 105 -206 223 -214 223 -4 0
-17 -11 -30 -25z"/>
<path d="M800 1363 c-90 -158 -88 -152 -59 -174 13 -10 29 -19 35 -19 11 0 53
65 116 180 40 73 41 78 8 95 -16 8 -33 15 -37 15 -5 0 -33 -44 -63 -97z"/>
<path d="M2993 1272 c-105 -70 -194 -130 -198 -134 -12 -11 28 -69 44 -63 14
5 66 38 273 173 62 39 116 72 120 72 5 0 -4 18 -18 40 -15 22 -27 40 -28 39 0
0 -87 -57 -193 -127z"/>
<path d="M1645 655 c-5 -2 -74 -18 -152 -36 -150 -34 -151 -35 -136 -88 5 -21
10 -23 52 -17 66 9 283 64 294 75 15 15 -7 66 -29 68 -10 1 -23 0 -29 -2z"/>
</g>
</svg>
